<?xml version="1.0" standalone="no"?><!DOCTYPE svg PUBLIC "-//W3C//DTD SVG 1.1//EN" "http://www.w3.org/Graphics/SVG/1.1/DTD/svg11.dtd"><svg t="1595213203918" class="icon" viewBox="0 0 1024 1024" version="1.1" xmlns="http://www.w3.org/2000/svg" p-id="15896" xmlns:xlink="http://www.w3.org/1999/xlink" width="64" height="64"><defs><style type="text/css"></style></defs><path d="M0 0h1024v1024H0V0z m940.117 779.776c-7.466-46.72-37.888-85.973-128.128-122.581-31.402-14.72-66.304-24.96-76.672-48.64-3.882-14.08-4.48-21.76-1.962-30.08 6.4-27.563 39.04-35.84 64.64-28.16 16.64 5.12 32 17.92 41.642 38.4 44.118-28.843 44.118-28.843 74.88-48-11.52-17.92-17.237-25.643-25.002-33.28-26.88-30.08-62.678-45.44-120.918-44.118l-30.08 3.798c-28.842 7.04-56.32 22.4-72.96 42.88-48.64 55.082-34.602 151.082 24.278 190.762 58.24 43.52 143.402 53.078 154.282 94.08 10.24 49.92-37.12 65.92-83.882 60.16-34.603-7.68-53.76-25.002-74.88-57.002l-78.08 44.842c8.96 20.48 19.2 29.398 34.56 47.318 74.24 74.922 259.84 71.082 293.162-42.838 1.238-3.84 10.24-30.08 3.158-70.4l1.962 2.859z m-383.274-309.12h-95.915c0 82.688-0.384 164.864-0.384 247.68 0 52.565 2.688 100.821-5.888 115.67-14.08 29.397-50.347 25.642-66.816 20.48-16.896-8.363-25.472-19.883-35.413-36.48-2.688-4.48-4.694-8.363-5.419-8.363l-77.867 48c13.014 26.88 32 50.005 56.491 64.725 36.48 21.76 85.504 28.8 136.832 17.28 33.408-9.643 62.208-29.483 77.27-60.203 21.76-39.68 17.151-88.32 16.938-142.762 0.512-87.638 0-175.318 0-263.638l0.17-2.389z" fill="#EA9518" p-id="15897"></path></svg>